<svg width="171" height="47" viewBox="0 0 171 47" fill="none" xmlns="http://www.w3.org/2000/svg">
<path d="M43.9197 21.9594C43.9197 32.7294 35.191 41.4561 24.423 41.4561C13.6549 41.4561 4.92627 32.7294 4.92627 21.9594C4.92627 11.1933 13.6549 2.46271 24.423 2.46271C35.191 2.46271 43.9197 11.1933 43.9197 21.9594Z" fill="#20B699"/>
<path d="M21.7559 31.2903C21.2211 31.2903 20.6863 31.0771 20.278 30.6484L14.6124 24.6979C13.7959 23.8404 13.7959 22.4512 14.6124 21.5961C15.4289 20.7385 16.7492 20.736 17.5658 21.5936L21.7559 25.9943L31.6116 15.6432C32.4281 14.7856 33.7484 14.7856 34.565 15.6432C35.3815 16.5008 35.3815 17.8899 34.565 18.7475L23.2338 30.6484C22.8255 31.0771 22.2907 31.2903 21.7559 31.2903Z" fill="white"/>
<g filter="url(#filter0_d_9_103)">
<path d="M55.8524 31.978V14.0441H58.0045L67.5606 28.4168V14.0441H69.7127V31.978L67.5606 31.978L58.0045 17.6053V31.978H55.8524ZM79.178 32.2854C77.9824 32.2854 76.9064 32.0121 75.9499 31.4656C74.9935 30.919 74.2334 30.1504 73.6698 29.1598C73.1232 28.1521 72.8499 26.9736 72.8499 25.6243C72.8499 24.2749 73.1317 23.105 73.6954 22.1143C74.259 21.1066 75.0191 20.3295 75.9755 19.7829C76.9491 19.2364 78.0337 18.9631 79.2293 18.9631C80.4249 18.9631 81.5009 19.2364 82.4574 19.7829C83.4138 20.3295 84.1653 21.1066 84.7119 22.1143C85.2755 23.105 85.5574 24.2749 85.5574 25.6243C85.5574 26.9736 85.2755 28.1521 84.7119 29.1598C84.1483 30.1504 83.3797 30.919 82.4061 31.4656C81.4496 32.0121 80.3736 32.2854 79.178 32.2854ZM79.178 30.4408C79.9125 30.4408 80.5957 30.2614 81.2276 29.9028C81.8596 29.5441 82.372 29.0061 82.7648 28.2887C83.1576 27.5714 83.3541 26.6832 83.3541 25.6243C83.3541 24.5653 83.1576 23.6771 82.7648 22.9598C82.389 22.2424 81.8852 21.7044 81.2532 21.3457C80.6213 20.9871 79.9466 20.8077 79.2293 20.8077C78.4948 20.8077 77.8116 20.9871 77.1797 21.3457C76.5477 21.7044 76.0353 22.2424 75.6425 22.9598C75.2497 23.6771 75.0532 24.5653 75.0532 25.6243C75.0532 26.6832 75.2497 27.5714 75.6425 28.2887C76.0353 29.0061 76.5392 29.5441 77.1541 29.9028C77.786 30.2614 78.4607 30.4408 79.178 30.4408ZM93.0708 31.978C91.9093 31.978 90.9956 31.6961 90.3294 31.1325C89.6633 30.5689 89.3303 29.5526 89.3303 28.0838V21.0895L87.127 21.0895V19.2705L89.3303 19.2705L89.6121 16.2218H91.4823V19.2705H95.2228V21.0895H91.4823V28.0838C91.4823 28.8865 91.6446 29.4331 91.9691 29.7234C92.2936 29.9967 92.8658 30.1333 93.6856 30.1333H95.0179V31.978H93.0708ZM110.579 32.2854C109.263 32.2854 108.119 32.0463 107.145 31.568C106.172 31.0898 105.42 30.4237 104.891 29.5697C104.361 28.7157 104.097 27.7251 104.097 26.5978H106.351C106.351 27.2981 106.513 27.9471 106.838 28.5449C107.163 29.1256 107.632 29.5953 108.247 29.954C108.879 30.2956 109.656 30.4664 110.579 30.4664C111.791 30.4664 112.731 30.176 113.397 29.5953C114.063 29.0146 114.396 28.2887 114.396 27.4176C114.396 26.7003 114.242 26.1281 113.935 25.7011C113.627 25.257 113.209 24.8984 112.679 24.6251C112.167 24.3518 111.569 24.1127 110.886 23.9077C110.22 23.7028 109.52 23.4722 108.785 23.216C107.402 22.7378 106.377 22.1485 105.711 21.4482C105.045 20.7309 104.712 19.8 104.712 18.6557C104.694 17.6992 104.917 16.8537 105.378 16.1193C105.839 15.3678 106.488 14.7871 107.325 14.3772C108.179 13.9502 109.186 13.7367 110.348 13.7367C111.492 13.7367 112.483 13.9502 113.32 14.3772C114.174 14.8042 114.831 15.3934 115.293 16.1449C115.771 16.8964 116.018 17.7504 116.036 18.7069H113.781C113.781 18.2116 113.653 17.7248 113.397 17.2466C113.14 16.7513 112.748 16.3499 112.218 16.0424C111.706 15.735 111.057 15.5813 110.271 15.5813C109.298 15.5642 108.495 15.8119 107.863 16.3243C107.248 16.8367 106.94 17.5455 106.94 18.4507C106.94 19.2193 107.154 19.8086 107.581 20.2185C108.025 20.6284 108.64 20.97 109.426 21.2433C110.211 21.4995 111.117 21.7984 112.141 22.14C112.995 22.4474 113.764 22.8061 114.447 23.216C115.13 23.6259 115.66 24.1554 116.036 24.8044C116.428 25.4535 116.625 26.2818 116.625 27.2895C116.625 28.1435 116.403 28.9548 115.959 29.7234C115.515 30.4749 114.84 31.0898 113.935 31.568C113.047 32.0463 111.928 32.2854 110.579 32.2854ZM119.549 37.6143V19.2705H121.496L121.701 21.3714C122.111 20.7565 122.691 20.2014 123.443 19.7061C124.211 19.2108 125.185 18.9631 126.364 18.9631C127.627 18.9631 128.729 19.2535 129.668 19.8342C130.608 20.4149 131.334 21.2091 131.846 22.2168C132.376 23.2245 132.64 24.3689 132.64 25.6499C132.64 26.9309 132.376 28.0752 131.846 29.0829C131.334 30.0736 130.599 30.8592 129.643 31.44C128.703 32.0036 127.602 32.2854 126.338 32.2854C125.296 32.2854 124.365 32.0719 123.545 31.6449C122.743 31.2179 122.128 30.6201 121.701 29.8515V37.6143H119.549ZM126.107 30.4152C126.961 30.4152 127.713 30.2187 128.362 29.8259C129.011 29.416 129.523 28.8523 129.899 28.135C130.275 27.4176 130.463 26.5807 130.463 25.6243C130.463 24.6678 130.275 23.8309 129.899 23.1135C129.523 22.3962 129.011 21.8411 128.362 21.4482C127.713 21.0383 126.961 20.8333 126.107 20.8333C125.253 20.8333 124.502 21.0383 123.853 21.4482C123.204 21.8411 122.691 22.3962 122.316 23.1135C121.94 23.8309 121.752 24.6678 121.752 25.6243C121.752 26.5807 121.94 27.4176 122.316 28.135C122.691 28.8523 123.204 29.416 123.853 29.8259C124.502 30.2187 125.253 30.4152 126.107 30.4152ZM139.863 32.2854C138.804 32.2854 137.925 32.1061 137.225 31.7474C136.524 31.3887 136.003 30.9105 135.662 30.3127C135.32 29.7149 135.149 29.0658 135.149 28.3656C135.149 27.0675 135.645 26.0683 136.635 25.3681C137.626 24.6678 138.975 24.3176 140.683 24.3176H144.116V24.1639C144.116 23.0537 143.826 22.2168 143.245 21.6532C142.664 21.0725 141.887 20.7821 140.914 20.7821C140.077 20.7821 139.351 20.9956 138.736 21.4226C138.138 21.8325 137.763 22.4389 137.609 23.2416H135.406C135.491 22.3193 135.798 21.5422 136.328 20.9102C136.874 20.2783 137.549 19.8 138.352 19.4755C139.155 19.1339 140.009 18.9631 140.914 18.9631C142.69 18.9631 144.022 19.4413 144.91 20.3978C145.816 21.3372 146.268 22.5926 146.268 24.1639V31.978H144.347L144.219 29.6978C143.86 30.4152 143.331 31.03 142.63 31.5424C141.947 32.0377 141.025 32.2854 139.863 32.2854ZM140.196 30.4664C141.016 30.4664 141.717 30.2529 142.297 29.8259C142.895 29.3989 143.348 28.8438 143.655 28.1606C143.963 27.4774 144.116 26.7601 144.116 26.0086V25.9829H140.863C139.599 25.9829 138.702 26.205 138.172 26.649C137.66 27.076 137.404 27.6141 137.404 28.2631C137.404 28.9292 137.643 29.4672 138.121 29.8771C138.617 30.27 139.308 30.4664 140.196 30.4664ZM149.497 31.978V19.2705H151.444L151.598 21.1152C152.008 20.432 152.554 19.9025 153.237 19.5267C153.92 19.151 154.689 18.9631 155.543 18.9631C156.551 18.9631 157.413 19.1681 158.131 19.578C158.865 19.9879 159.429 20.6113 159.822 21.4482C160.266 20.6796 160.872 20.0733 161.641 19.6292C162.426 19.1851 163.272 18.9631 164.177 18.9631C165.697 18.9631 166.91 19.4243 167.815 20.3466C168.72 21.2518 169.173 22.6524 169.173 24.5482V31.978H167.046V24.7788C167.046 23.4636 166.782 22.473 166.252 21.8069C165.723 21.1408 164.963 20.8077 163.972 20.8077C162.947 20.8077 162.093 21.2091 161.41 22.0119C160.744 22.7975 160.411 23.9248 160.411 25.3937V31.978H158.259V24.7788C158.259 23.4636 157.994 22.473 157.465 21.8069C156.935 21.1408 156.175 20.8077 155.184 20.8077C154.177 20.8077 153.331 21.2091 152.648 22.0119C151.982 22.7975 151.649 23.9248 151.649 25.3937V31.978L149.497 31.978Z" fill="white"/>
</g>
<defs>
<filter id="filter0_d_9_103" x="55.0083" y="12.8925" width="115.009" height="25.5659" filterUnits="userSpaceOnUse" color-interpolation-filters="sRGB">
<feFlood flood-opacity="0" result="BackgroundImageFix"/>
<feColorMatrix in="SourceAlpha" type="matrix" values="0 0 0 0 0 0 0 0 0 0 0 0 0 0 0 0 0 0 127 0" result="hardAlpha"/>
<feOffset/>
<feGaussianBlur stdDeviation="0.422049"/>
<feComposite in2="hardAlpha" operator="out"/>
<feColorMatrix type="matrix" values="0 0 0 0 1 0 0 0 0 1 0 0 0 0 1 0 0 0 1 0"/>
<feBlend mode="normal" in2="BackgroundImageFix" result="effect1_dropShadow_9_103"/>
<feBlend mode="normal" in="SourceGraphic" in2="effect1_dropShadow_9_103" result="shape"/>
</filter>
</defs>
</svg>
