<svg width="142" height="55" viewBox="0 0 142 55" fill="none" xmlns="http://www.w3.org/2000/svg">
<path d="M14.4842 43.2706C14.4595 43.2706 14.4367 43.2706 14.41 43.2687C13.8107 43.2382 13.2229 43.1088 12.6635 42.8825C9.91061 41.7638 8.58267 38.6189 9.69944 35.8679L23.6276 11.4666C24.1071 10.599 24.8338 9.87227 25.7204 9.38142C28.3173 7.94313 31.601 8.88868 33.0374 11.4837L46.8743 35.6986C47.1825 36.4235 47.3137 37.0132 47.3461 37.6144C47.4203 39.0527 46.9294 40.432 45.9668 41.4993C45.0041 42.5666 43.6819 43.1964 42.2455 43.2687L14.6212 43.2706H14.4842Z" fill="#F34369"/>
<path fill-rule="evenodd" clip-rule="evenodd" d="M27 22.6648C27 21.7477 27.7477 21 28.6647 21C29.5817 21 30.3294 21.7477 30.3294 22.6648V28.0451C30.3294 28.964 29.5817 29.7097 28.6647 29.7097C27.7477 29.7097 27 28.964 27 28.0451V22.6648ZM27 34.5537C27 33.631 27.7477 32.8795 28.6647 32.8795C29.5817 32.8795 30.3294 33.6215 30.3294 34.5328C30.3294 35.4707 29.5817 36.2184 28.6647 36.2184C27.7477 36.2184 27 35.4707 27 34.5537Z" fill="white"/>
<g filter="url(#filter0_d_9_142)">
<path d="M71.91 37.36C70.37 37.36 69.03 37.08 67.89 36.52C66.75 35.96 65.87 35.18 65.25 34.18C64.63 33.18 64.32 32.02 64.32 30.7H66.96C66.96 31.52 67.15 32.28 67.53 32.98C67.91 33.66 68.46 34.21 69.18 34.63C69.92 35.03 70.83 35.23 71.91 35.23C73.33 35.23 74.43 34.89 75.21 34.21C75.99 33.53 76.38 32.68 76.38 31.66C76.38 30.82 76.2 30.15 75.84 29.65C75.48 29.13 74.99 28.71 74.37 28.39C73.77 28.07 73.07 27.79 72.27 27.55C71.49 27.31 70.67 27.04 69.81 26.74C68.19 26.18 66.99 25.49 66.21 24.67C65.43 23.83 65.04 22.74 65.04 21.4C65.02 20.28 65.28 19.29 65.82 18.43C66.36 17.55 67.12 16.87 68.1 16.39C69.1 15.89 70.28 15.64 71.64 15.64C72.98 15.64 74.14 15.89 75.12 16.39C76.12 16.89 76.89 17.58 77.43 18.46C77.99 19.34 78.28 20.34 78.3 21.46H75.66C75.66 20.88 75.51 20.31 75.21 19.75C74.91 19.17 74.45 18.7 73.83 18.34C73.23 17.98 72.47 17.8 71.55 17.8C70.41 17.78 69.47 18.07 68.73 18.67C68.01 19.27 67.65 20.1 67.65 21.16C67.65 22.06 67.9 22.75 68.4 23.23C68.92 23.71 69.64 24.11 70.56 24.43C71.48 24.73 72.54 25.08 73.74 25.48C74.74 25.84 75.64 26.26 76.44 26.74C77.24 27.22 77.86 27.84 78.3 28.6C78.76 29.36 78.99 30.33 78.99 31.51C78.99 32.51 78.73 33.46 78.21 34.36C77.69 35.24 76.9 35.96 75.84 36.52C74.8 37.08 73.49 37.36 71.91 37.36ZM82.4138 43.6V22.12L84.6938 22.12L84.9338 24.58C85.4138 23.86 86.0938 23.21 86.9738 22.63C87.8738 22.05 89.0138 21.76 90.3938 21.76C91.8738 21.76 93.1638 22.1 94.2638 22.78C95.3638 23.46 96.2138 24.39 96.8138 25.57C97.4338 26.75 97.7438 28.09 97.7438 29.59C97.7438 31.09 97.4338 32.43 96.8138 33.61C96.2138 34.77 95.3538 35.69 94.2338 36.37C93.1338 37.03 91.8438 37.36 90.3638 37.36C89.1438 37.36 88.0538 37.11 87.0938 36.61C86.1538 36.11 85.4338 35.41 84.9338 34.51V43.6H82.4138ZM90.0938 35.17C91.0938 35.17 91.9738 34.94 92.7338 34.48C93.4938 34 94.0938 33.34 94.5338 32.5C94.9738 31.66 95.1938 30.68 95.1938 29.56C95.1938 28.44 94.9738 27.46 94.5338 26.62C94.0938 25.78 93.4938 25.13 92.7338 24.67C91.9738 24.19 91.0938 23.95 90.0938 23.95C89.0938 23.95 88.2138 24.19 87.4538 24.67C86.6938 25.13 86.0938 25.78 85.6538 26.62C85.2138 27.46 84.9938 28.44 84.9938 29.56C84.9938 30.68 85.2138 31.66 85.6538 32.5C86.0938 33.34 86.6938 34 87.4538 34.48C88.2138 34.94 89.0938 35.17 90.0938 35.17ZM106.202 37.36C104.962 37.36 103.932 37.15 103.112 36.73C102.292 36.31 101.682 35.75 101.282 35.05C100.882 34.35 100.682 33.59 100.682 32.77C100.682 31.25 101.262 30.08 102.422 29.26C103.582 28.44 105.162 28.03 107.162 28.03H111.182V27.85C111.182 26.55 110.842 25.57 110.162 24.91C109.482 24.23 108.572 23.89 107.432 23.89C106.452 23.89 105.602 24.14 104.882 24.64C104.182 25.12 103.742 25.83 103.562 26.77H100.982C101.082 25.69 101.442 24.78 102.062 24.04C102.702 23.3 103.492 22.74 104.432 22.36C105.372 21.96 106.372 21.76 107.432 21.76C109.512 21.76 111.072 22.32 112.112 23.44C113.172 24.54 113.702 26.01 113.702 27.85V37H111.452L111.302 34.33C110.882 35.17 110.262 35.89 109.442 36.49C108.642 37.07 107.562 37.36 106.202 37.36ZM106.592 35.23C107.552 35.23 108.372 34.98 109.052 34.48C109.752 33.98 110.282 33.33 110.642 32.53C111.002 31.73 111.182 30.89 111.182 30.01V29.98H107.372C105.892 29.98 104.842 30.24 104.222 30.76C103.622 31.26 103.322 31.89 103.322 32.65C103.322 33.43 103.602 34.06 104.162 34.54C104.742 35 105.552 35.23 106.592 35.23ZM117.482 37V22.12H119.762L119.942 24.28C120.422 23.48 121.062 22.86 121.862 22.42C122.662 21.98 123.562 21.76 124.562 21.76C125.742 21.76 126.752 22 127.592 22.48C128.452 22.96 129.112 23.69 129.572 24.67C130.092 23.77 130.802 23.06 131.702 22.54C132.622 22.02 133.612 21.76 134.672 21.76C136.452 21.76 137.872 22.3 138.932 23.38C139.992 24.44 140.522 26.08 140.522 28.3V37H138.032V28.57C138.032 27.03 137.722 25.87 137.102 25.09C136.482 24.31 135.592 23.92 134.432 23.92C133.232 23.92 132.232 24.39 131.432 25.33C130.652 26.25 130.262 27.57 130.262 29.29V37H127.742V28.57C127.742 27.03 127.432 25.87 126.812 25.09C126.192 24.31 125.302 23.92 124.142 23.92C122.962 23.92 121.972 24.39 121.172 25.33C120.392 26.25 120.002 27.57 120.002 29.29V37H117.482Z" fill="white"/>
</g>
<defs>
<filter id="filter0_d_9_142" x="63.3316" y="14.6516" width="78.1789" height="29.9368" filterUnits="userSpaceOnUse" color-interpolation-filters="sRGB">
<feFlood flood-opacity="0" result="BackgroundImageFix"/>
<feColorMatrix in="SourceAlpha" type="matrix" values="0 0 0 0 0 0 0 0 0 0 0 0 0 0 0 0 0 0 127 0" result="hardAlpha"/>
<feOffset/>
<feGaussianBlur stdDeviation="0.494206"/>
<feComposite in2="hardAlpha" operator="out"/>
<feColorMatrix type="matrix" values="0 0 0 0 1 0 0 0 0 1 0 0 0 0 1 0 0 0 1 0"/>
<feBlend mode="normal" in2="BackgroundImageFix" result="effect1_dropShadow_9_142"/>
<feBlend mode="normal" in="SourceGraphic" in2="effect1_dropShadow_9_142" result="shape"/>
</filter>
</defs>
</svg>
